<?xml version="1.0" encoding="UTF-8"?>
<svg xmlns="http://www.w3.org/2000/svg" xmlns:xlink="http://www.w3.org/1999/xlink" width="128px" height="128px" viewBox="0 0 128 128" version="1.1">
<g id="surface1">
<path style=" stroke:none;fill-rule:nonzero;fill:rgb(0%,0%,0%);fill-opacity:1;" d="M 89.949219 36.257812 L 101.171875 36.257812 L 84.535156 7.71875 C 83.195312 5.40625 80.226562 4.621094 77.914062 5.984375 C 75.601562 7.324219 74.8125 10.296875 76.179688 12.609375 Z M 89.949219 36.257812 "/>
<path style=" stroke:none;fill-rule:nonzero;fill:rgb(0%,0%,0%);fill-opacity:1;" d="M 51.871094 12.609375 C 53.214844 10.296875 52.449219 7.324219 50.136719 5.984375 C 47.824219 4.644531 44.855469 5.40625 43.515625 7.71875 L 26.882812 36.285156 L 38.101562 36.285156 Z M 51.871094 12.609375 "/>
<path style=" stroke:none;fill-rule:nonzero;fill:rgb(0%,0%,0%);fill-opacity:1;" d="M 119.75 45.007812 L 8.226562 45.007812 C 3.679688 45.007812 0 48.6875 0 53.234375 L 0 62.351562 C 0 66.898438 3.679688 70.578125 8.226562 70.578125 L 10.800781 70.578125 L 18.734375 113.59375 C 19.734375 118.664062 24.359375 122.6875 29.167969 122.6875 L 53.027344 122.6875 C 55.132812 122.6875 57.863281 122.6875 60.648438 122.6875 L 65.695312 122.6875 C 68.480469 122.6875 71.214844 122.6875 73.316406 122.6875 L 97.175781 122.6875 C 101.984375 122.6875 106.609375 118.664062 107.609375 113.59375 L 115.597656 70.550781 L 119.773438 70.550781 C 124.320312 70.550781 128 66.871094 128 62.324219 L 128 53.207031 C 127.972656 48.6875 124.292969 45.007812 119.75 45.007812 Z M 45.410156 88 L 45.410156 106.550781 C 45.410156 109.207031 43.253906 111.203125 40.757812 111.203125 C 38.101562 111.203125 36.105469 109.046875 36.105469 106.550781 L 36.105469 80.535156 C 36.105469 77.882812 38.261719 75.886719 40.757812 75.886719 C 43.410156 75.886719 45.410156 78.039062 45.410156 80.535156 Z M 60.335938 88 L 60.335938 106.550781 C 60.335938 109.207031 58.179688 111.203125 55.683594 111.203125 C 53.027344 111.203125 51.03125 109.046875 51.03125 106.550781 L 51.03125 80.535156 C 51.03125 77.882812 53.1875 75.886719 55.683594 75.886719 C 58.179688 75.886719 60.335938 78.039062 60.335938 80.535156 Z M 75.339844 98.773438 L 75.339844 106.550781 C 75.339844 109.046875 73.34375 111.203125 70.6875 111.203125 C 68.191406 111.203125 66.035156 109.207031 66.035156 106.550781 L 66.035156 80.535156 C 66.035156 78.039062 68.191406 75.886719 70.6875 75.886719 C 73.183594 75.886719 75.339844 77.882812 75.339844 80.535156 Z M 90.265625 98.773438 L 90.265625 106.550781 C 90.265625 109.046875 88.269531 111.203125 85.613281 111.203125 C 83.117188 111.203125 80.960938 109.207031 80.960938 106.550781 L 80.960938 80.535156 C 80.960938 78.039062 82.960938 75.886719 85.613281 75.886719 C 88.109375 75.886719 90.265625 77.882812 90.265625 80.535156 Z M 90.265625 98.773438 "/>
</g>
</svg>
