<?xml version="1.0" encoding="UTF-8"?>
<svg xmlns="http://www.w3.org/2000/svg" xmlns:xlink="http://www.w3.org/1999/xlink" width="32px" height="32px" viewBox="0 0 32 32" version="1.1">
<g id="surface1">
<path style=" stroke:none;fill-rule:nonzero;fill:rgb(0%,0%,0%);fill-opacity:1;" d="M 22.488281 9.066406 L 25.292969 9.066406 L 21.132812 1.929688 C 20.800781 1.351562 20.058594 1.15625 19.480469 1.496094 C 18.902344 1.832031 18.703125 2.574219 19.046875 3.152344 Z M 22.488281 9.066406 "/>
<path style=" stroke:none;fill-rule:nonzero;fill:rgb(0%,0%,0%);fill-opacity:1;" d="M 12.96875 3.152344 C 13.304688 2.574219 13.113281 1.832031 12.535156 1.496094 C 11.957031 1.160156 11.214844 1.351562 10.878906 1.929688 L 6.71875 9.070312 L 9.527344 9.070312 Z M 12.96875 3.152344 "/>
<path style=" stroke:none;fill-rule:nonzero;fill:rgb(0%,0%,0%);fill-opacity:1;" d="M 29.9375 11.253906 L 2.054688 11.253906 C 0.917969 11.253906 0 12.171875 0 13.308594 L 0 15.589844 C 0 16.722656 0.917969 17.644531 2.054688 17.644531 L 2.699219 17.644531 L 4.683594 28.398438 C 4.933594 29.667969 6.089844 30.671875 7.292969 30.671875 L 13.257812 30.671875 C 13.78125 30.671875 14.464844 30.671875 15.164062 30.671875 L 16.421875 30.671875 C 17.121094 30.671875 17.804688 30.671875 18.328125 30.671875 L 24.292969 30.671875 C 25.496094 30.671875 26.652344 29.667969 26.902344 28.398438 L 28.898438 17.636719 L 29.945312 17.636719 C 31.082031 17.636719 32 16.71875 32 15.582031 L 32 13.300781 C 31.992188 12.171875 31.074219 11.253906 29.9375 11.253906 Z M 11.351562 22 L 11.351562 26.636719 C 11.351562 27.300781 10.8125 27.800781 10.1875 27.800781 C 9.527344 27.800781 9.027344 27.261719 9.027344 26.636719 L 9.027344 20.132812 C 9.027344 19.46875 9.566406 18.972656 10.1875 18.972656 C 10.851562 18.972656 11.351562 19.511719 11.351562 20.132812 Z M 15.082031 22 L 15.082031 26.636719 C 15.082031 27.300781 14.542969 27.800781 13.921875 27.800781 C 13.257812 27.800781 12.757812 27.261719 12.757812 26.636719 L 12.757812 20.132812 C 12.757812 19.46875 13.296875 18.972656 13.921875 18.972656 C 14.542969 18.972656 15.082031 19.511719 15.082031 20.132812 Z M 18.835938 24.691406 L 18.835938 26.636719 C 18.835938 27.261719 18.335938 27.800781 17.671875 27.800781 C 17.046875 27.800781 16.507812 27.300781 16.507812 26.636719 L 16.507812 20.132812 C 16.507812 19.511719 17.046875 18.972656 17.671875 18.972656 C 18.296875 18.972656 18.835938 19.46875 18.835938 20.132812 Z M 22.566406 24.691406 L 22.566406 26.636719 C 22.566406 27.261719 22.066406 27.800781 21.402344 27.800781 C 20.78125 27.800781 20.242188 27.300781 20.242188 26.636719 L 20.242188 20.132812 C 20.242188 19.511719 20.738281 18.972656 21.402344 18.972656 C 22.027344 18.972656 22.566406 19.46875 22.566406 20.132812 Z M 22.566406 24.691406 "/>
</g>
</svg>
